<?xml version="1.0" encoding="UTF-8"?>
<!DOCTYPE svg PUBLIC "-//W3C//DTD SVG 1.1//EN" "http://www.w3.org/Graphics/SVG/1.1/DTD/svg11.dtd">
<svg xmlns="http://www.w3.org/2000/svg" version="1.1" width="1500px" height="1051px" style="shape-rendering:geometricPrecision; text-rendering:geometricPrecision; image-rendering:optimizeQuality; fill-rule:evenodd; clip-rule:evenodd" xmlns:xlink="http://www.w3.org/1999/xlink">
<g><path style="opacity:0.952" fill="#000000" d="M 1173.5,27.5 C 1186.36,25.1771 1195.52,29.8437 1201,41.5C 1223.33,96.8333 1245.67,152.167 1268,207.5C 1269.83,221 1264,226.833 1250.5,225C 1248.41,224.208 1246.58,223.041 1245,221.5C 1239.5,208.316 1234,195.15 1228.5,182C 1196.49,181.167 1164.49,181.333 1132.5,182.5C 1127.9,193.794 1123.4,205.127 1119,216.5C 1115.47,224.846 1109.3,227.679 1100.5,225C 1094.07,221.301 1091.57,215.801 1093,208.5C 1115.67,151.833 1138.33,95.1667 1161,38.5C 1164.12,33.5362 1168.29,29.8696 1173.5,27.5 Z M 1180.5,56.5 C 1194.06,89.9658 1207.39,123.633 1220.5,157.5C 1193.83,158.833 1167.17,158.833 1140.5,157.5C 1154.12,123.924 1167.46,90.2577 1180.5,56.5 Z"/></g>
<g><path style="opacity:0.957" fill="#000000" d="M 1341.5,27.5 C 1348.85,25.7585 1354.35,28.0919 1358,34.5C 1358.5,90.1657 1358.67,145.832 1358.5,201.5C 1386.84,201.333 1415.17,201.5 1443.5,202C 1448.21,203.917 1450.54,207.417 1450.5,212.5C 1450.77,218.393 1448.1,222.226 1442.5,224C 1411.17,224.667 1379.83,224.667 1348.5,224C 1340.33,222.5 1335.5,217.667 1334,209.5C 1333.33,151.833 1333.33,94.1667 1334,36.5C 1334.92,32.0856 1337.42,29.0856 1341.5,27.5 Z"/></g>
<g><path style="opacity:0.961" fill="#000000" d="M 75.5,28.5 C 110.502,28.3333 145.502,28.5 180.5,29C 188.374,31.2399 191.208,36.4065 189,44.5C 187.5,47.3333 185.333,49.5 182.5,51C 149.835,51.5 117.168,51.6666 84.5,51.5C 84.5,72.1667 84.5,92.8333 84.5,113.5C 116.835,113.333 149.168,113.5 181.5,114C 185.823,116.106 187.823,119.606 187.5,124.5C 187.519,129.643 185.186,133.143 180.5,135C 148.502,135.5 116.502,135.667 84.5,135.5C 84.6666,163.169 84.5,190.835 84,218.5C 81.6573,223.671 77.6573,226.005 72,225.5C 65.4378,225.94 61.4378,222.94 60,216.5C 59.3333,158.833 59.3333,101.167 60,43.5C 61.7867,34.8781 66.9534,29.8781 75.5,28.5 Z"/></g>
<g><path style="opacity:0.945" fill="#000000" d="M 270.5,28.5 C 305.835,28.3333 341.168,28.5 376.5,29C 383.955,32.0843 386.455,37.5843 384,45.5C 382.749,48.3807 380.583,50.214 377.5,51C 345.168,51.5 312.835,51.6666 280.5,51.5C 280.5,72.1667 280.5,92.8333 280.5,113.5C 312.502,113.333 344.502,113.5 376.5,114C 380.953,116.071 382.953,119.571 382.5,124.5C 383.037,129.928 380.704,133.428 375.5,135C 343.835,135.5 312.168,135.667 280.5,135.5C 280.5,157.5 280.5,179.5 280.5,201.5C 312.835,201.333 345.168,201.5 377.5,202C 382.209,203.917 384.542,207.417 384.5,212.5C 384.771,218.393 382.105,222.226 376.5,224C 340.833,224.667 305.167,224.667 269.5,224C 261.158,222.17 256.325,217.003 255,208.5C 254.333,153.833 254.333,99.1667 255,44.5C 256.68,35.6545 261.847,30.3211 270.5,28.5 Z"/></g>
<g><path style="opacity:0.955" fill="#000000" d="M 470.5,28.5 C 489.836,28.3334 509.17,28.5 528.5,29C 571.335,31.1962 600.835,52.0296 617,91.5C 627.391,124.756 623.391,156.089 605,185.5C 585.837,209.832 560.671,222.666 529.5,224C 509.833,224.667 490.167,224.667 470.5,224C 462.78,222.614 457.947,218.114 456,210.5C 455.333,154.5 455.333,98.5 456,42.5C 458.124,34.8739 462.957,30.2072 470.5,28.5 Z M 480.5,51.5 C 497.837,51.3334 515.17,51.5001 532.5,52C 573.995,59.3387 595.328,84.172 596.5,126.5C 595.056,168.616 573.723,193.449 532.5,201C 515.17,201.5 497.837,201.667 480.5,201.5C 480.5,151.5 480.5,101.5 480.5,51.5 Z"/></g>
<g><path style="opacity:0.956" fill="#000000" d="M 709.5,28.5 C 744.835,28.3333 780.168,28.5 815.5,29C 823.842,32.194 826.342,38.0273 823,46.5C 821.363,48.8102 819.196,50.3102 816.5,51C 784.168,51.5 751.835,51.6666 719.5,51.5C 719.5,72.1667 719.5,92.8333 719.5,113.5C 751.835,113.333 784.168,113.5 816.5,114C 822.245,118.246 823.745,123.746 821,130.5C 819.457,132.378 817.624,133.878 815.5,135C 783.502,135.5 751.502,135.667 719.5,135.5C 719.5,157.5 719.5,179.5 719.5,201.5C 751.835,201.333 784.168,201.5 816.5,202C 824.721,206.107 826.554,212.273 822,220.5C 820.421,222.041 818.587,223.208 816.5,224C 780.833,224.667 745.167,224.667 709.5,224C 702.21,222.712 697.377,218.545 695,211.5C 694.333,154.833 694.333,98.1667 695,41.5C 697.549,34.4428 702.382,30.1095 709.5,28.5 Z"/></g>
<g><path style="opacity:0.958" fill="#000000" d="M 910.5,28.5 C 933.169,28.3334 955.836,28.5 978.5,29C 1014.23,32.2315 1033.23,51.7315 1035.5,87.5C 1034.23,120.103 1017.56,139.436 985.5,145.5C 999.53,166.365 1013.36,187.365 1027,208.5C 1029.01,214.6 1027.51,219.767 1022.5,224C 1015.78,226.851 1009.95,225.685 1005,220.5C 989.54,195.745 973.707,171.245 957.5,147C 945.171,146.5 932.838,146.333 920.5,146.5C 920.971,170.899 920.471,195.232 919,219.5C 916.391,223.722 912.558,225.722 907.5,225.5C 902.04,225.853 898.207,223.519 896,218.5C 895.333,159.167 895.333,99.8333 896,40.5C 898.94,34.0471 903.774,30.0471 910.5,28.5 Z M 920.5,51.5 C 939.503,51.3334 958.503,51.5001 977.5,52C 997.54,55.703 1007.87,67.703 1008.5,88C 1007.97,107.868 997.966,119.868 978.5,124C 959.17,124.5 939.836,124.667 920.5,124.5C 920.5,100.167 920.5,75.8333 920.5,51.5 Z"/></g>
<g><path style="opacity:0.98" fill="#008816" d="M 1213.5,269.5 C 1308.04,271.362 1381.2,311.362 1433,389.5C 1454.97,425.401 1467.3,464.401 1470,506.5C 1470.67,587.5 1470.67,668.5 1470,749.5C 1466,765.263 1455.83,773.596 1439.5,774.5C 1424.33,773.667 1414.5,766 1410,751.5C 1409.67,730.167 1409.33,708.833 1409,687.5C 1358.46,743.76 1295.13,772.76 1219,774.5C 1124.7,771.39 1052.36,730.39 1002,651.5C 994.309,638.796 988.309,625.462 984,611.5C 998.833,588.5 1013.67,565.5 1028.5,542.5C 1039.41,615.202 1078.08,667.035 1144.5,698C 1220.34,726.295 1288.68,713.962 1349.5,661C 1406.59,602.228 1422.43,533.728 1397,455.5C 1369.12,388.125 1319.29,347.625 1247.5,334C 1196.64,326.301 1150.3,337.301 1108.5,367C 1077.84,390.99 1051.34,418.823 1029,450.5C 994.836,501.491 961.169,552.825 928,604.5C 903.879,639.64 876.379,672.14 845.5,702C 777.967,762.89 699.3,784.89 609.5,768C 529.266,747.087 471.433,699.253 436,624.5C 406.253,552.921 407.586,481.921 440,411.5C 474.619,344.589 528.119,300.422 600.5,279C 699.856,256.126 784.689,281.293 855,354.5C 860.445,360.614 865.112,367.28 869,374.5C 874.028,394.616 866.861,408.116 847.5,415C 838.102,416.803 829.435,415.136 821.5,410C 767.3,343.71 698.3,320.043 614.5,339C 547.562,360.271 503.729,404.438 483,471.5C 465.157,548.293 484.99,613.459 542.5,667C 600.221,713.399 664.221,724.399 734.5,700C 756.911,691.303 777.244,679.303 795.5,664C 828.1,634.751 856.267,601.918 880,565.5C 912.672,513.482 946.339,462.149 981,411.5C 1008.09,373.081 1040.59,339.914 1078.5,312C 1119.39,284.648 1164.39,270.481 1213.5,269.5 Z"/></g>
<g><path style="opacity:0.982" fill="#000000" d="M 78.5,277.5 C 96.7944,275.655 108.961,283.321 115,300.5C 115.333,371.833 115.667,443.167 116,514.5C 117.477,573.278 140.31,621.778 184.5,660C 241.619,704.553 304.619,715.22 373.5,692C 384.564,687.634 395.231,682.468 405.5,676.5C 413.162,687.005 420.662,697.672 428,708.5C 432.667,713.833 437.333,719.167 442,724.5C 442.688,725.332 442.521,725.998 441.5,726.5C 370.924,768.967 296.591,776.8 218.5,750C 140.291,718.791 88.7909,662.958 64,582.5C 60.3058,568.696 57.6392,554.696 56,540.5C 54.3721,461.515 54.0388,382.515 55,303.5C 57.4533,289.884 65.2866,281.217 78.5,277.5 Z"/></g>
<g><path style="opacity:0.99" fill="#000000" d="M 655.5,405.5 C 705.325,403.324 743.159,423.324 769,465.5C 790.232,508.534 787.899,550.2 762,590.5C 728.999,631.947 686.499,646.781 634.5,635C 581.165,616.536 552.832,579.036 549.5,522.5C 551.134,477.375 571.134,443.209 609.5,420C 624.081,412.362 639.414,407.529 655.5,405.5 Z"/></g>
<g><path style="opacity:0.949" fill="#000000" d="M 108.5,824.5 C 138.166,822.106 163.333,831.44 184,852.5C 187.754,859.114 187.254,865.28 182.5,871C 177.5,874.333 172.5,874.333 167.5,871C 144.521,846.67 117.521,841.003 86.5,854C 56.3372,870.81 42.1705,896.643 44,931.5C 49.1577,975.658 73.8243,999.991 118,1004.5C 129.161,1004.07 139.661,1001.24 149.5,996C 157.079,991.091 164.079,985.425 170.5,979C 182.83,977.665 187.997,983.165 186,995.5C 171.848,1013.33 153.348,1023.5 130.5,1026C 88.4828,1030.02 55.6495,1014.86 32,980.5C 14.7999,947.962 13.1333,914.629 27,880.5C 43.9865,847.013 71.1531,828.346 108.5,824.5 Z"/></g>
<g><path style="opacity:0.952" fill="#000000" d="M 302.5,824.5 C 363.728,824.022 398.895,854.022 408,914.5C 411.456,950.818 399.956,981.318 373.5,1006C 344.884,1026.57 313.551,1031.9 279.5,1022C 239.952,1006.78 218.452,977.945 215,935.5C 212.591,906.121 220.257,879.787 238,856.5C 255.369,837.399 276.869,826.732 302.5,824.5 Z M 300.5,847.5 C 348.564,845.726 375.731,868.726 382,916.5C 384.852,945.623 375.685,970.123 354.5,990C 325.833,1009.33 297.167,1009.33 268.5,990C 247.744,970.746 238.577,946.913 241,918.5C 242.756,888.794 256.589,866.961 282.5,853C 288.531,850.832 294.531,848.999 300.5,847.5 Z"/></g>
<g><path style="opacity:0.951" fill="#000000" d="M 996.5,824.5 C 1057.49,823.662 1092.66,853.329 1102,913.5C 1105.73,950.175 1094.23,981.008 1067.5,1006C 1035.92,1028.35 1001.92,1032.69 965.5,1019C 933.51,1003.89 915.01,978.726 910,943.5C 904.521,905.94 915.021,873.773 941.5,847C 957.677,834.111 976.011,826.611 996.5,824.5 Z M 994.5,847.5 C 1042.09,845.581 1069.25,868.248 1076,915.5C 1079.05,945.017 1069.89,969.85 1048.5,990C 1021.3,1008.36 993.63,1009.02 965.5,992C 944.715,975.088 934.381,953.088 934.5,926C 934.696,905.411 940.863,886.911 953,870.5C 964.209,857.981 978.043,850.315 994.5,847.5 Z"/></g>
<g><path style="opacity:0.951" fill="#000000" d="M 1402.5,824.5 C 1426.79,823.568 1448.79,830.068 1468.5,844C 1475.98,850.709 1476.31,857.709 1469.5,865C 1465.63,866.52 1461.63,866.854 1457.5,866C 1436.32,849.121 1412.65,844.121 1386.5,851C 1368.68,858.778 1363.18,871.612 1370,889.5C 1374.67,894.502 1380.17,898.335 1386.5,901C 1402.03,906.132 1417.7,910.799 1433.5,915C 1448.65,919.155 1461.49,926.988 1472,938.5C 1484.88,959.988 1484.55,981.321 1471,1002.5C 1458.08,1016.88 1441.91,1024.71 1422.5,1026C 1393.81,1029.33 1367.81,1022.66 1344.5,1006C 1334.79,998.707 1334.12,990.707 1342.5,982C 1345.7,980.517 1349.04,980.183 1352.5,981C 1360.97,987.457 1369.97,993.124 1379.5,998C 1399.23,1006.43 1418.9,1006.43 1438.5,998C 1455.36,987.293 1459.2,973.127 1450,955.5C 1443.88,949.387 1436.71,944.887 1428.5,942C 1411.83,937 1395.17,932 1378.5,927C 1345.39,915.621 1333.89,893.121 1344,859.5C 1350.69,845.149 1361.52,835.316 1376.5,830C 1385.13,827.308 1393.8,825.475 1402.5,824.5 Z"/></g>
<g><path style="opacity:0.96" fill="#000000" d="M 460.5,826.5 C 470.074,825.078 477.907,828.078 484,835.5C 503,881.167 522,926.833 541,972.5C 560.09,925.555 579.757,878.888 600,832.5C 611.62,823.952 622.62,824.618 633,834.5C 634.275,836.717 635.275,839.051 636,841.5C 636.667,899.833 636.667,958.167 636,1016.5C 632.527,1024.09 626.694,1026.59 618.5,1024C 615.244,1022.41 613.077,1019.91 612,1016.5C 611.667,966.5 611.333,916.5 611,866.5C 589.724,917.386 568.724,968.386 548,1019.5C 545.565,1024.22 541.731,1025.72 536.5,1024C 514.094,971.794 492.261,919.294 471,866.5C 470.667,916.5 470.333,966.5 470,1016.5C 466.527,1024.09 460.694,1026.59 452.5,1024C 450.376,1022.88 448.543,1021.38 447,1019.5C 445.345,960.224 445.012,900.891 446,841.5C 448.351,833.984 453.184,828.984 460.5,826.5 Z"/></g>
<g><path style="opacity:0.951" fill="#000000" d="M 696.5,826.5 C 707.12,824.896 715.287,828.563 721,837.5C 739.021,882.403 757.521,927.069 776.5,971.5C 795.649,925.864 814.816,880.197 834,834.5C 841.355,826.587 850.188,824.42 860.5,828C 866.626,831.399 870.459,836.566 872,843.5C 872.667,900.833 872.667,958.167 872,1015.5C 868.872,1023.48 863.039,1026.31 854.5,1024C 851.667,1022.5 849.5,1020.33 848,1017.5C 847.667,966.833 847.333,916.167 847,865.5C 825.497,918.666 803.33,971.5 780.5,1024C 777.833,1024.67 775.167,1024.67 772.5,1024C 750.003,972.166 728.17,919.999 707,867.5C 706.667,916.5 706.333,965.5 706,1014.5C 703.43,1023.21 697.597,1026.37 688.5,1024C 684.056,1021.89 681.556,1018.39 681,1013.5C 680.333,957.5 680.333,901.5 681,845.5C 682.34,835.998 687.506,829.665 696.5,826.5 Z"/></g>
<g><path style="opacity:0.961" fill="#000000" d="M 1149.5,826.5 C 1157.19,824.996 1163.69,826.996 1169,832.5C 1204.67,881.167 1240.33,929.833 1276,978.5C 1276.33,930.167 1276.67,881.833 1277,833.5C 1281.02,826.862 1286.85,824.696 1294.5,827C 1298.17,828.668 1300.33,831.501 1301,835.5C 1301.67,894.833 1301.67,954.167 1301,1013.5C 1297.6,1023.45 1290.76,1026.95 1280.5,1024C 1277.9,1023.12 1275.73,1021.62 1274,1019.5C 1237.91,969.656 1201.58,919.989 1165,870.5C 1164.67,919.167 1164.33,967.833 1164,1016.5C 1160.57,1024.1 1154.74,1026.6 1146.5,1024C 1143.27,1022.44 1141.1,1019.94 1140,1016.5C 1139.33,956.5 1139.33,896.5 1140,836.5C 1142.02,831.98 1145.19,828.647 1149.5,826.5 Z"/></g>
</svg>
